<mxfile host="Electron" agent="Mozilla/5.0 (Windows NT 10.0; Win64; x64) AppleWebKit/537.36 (KHTML, like Gecko) draw.io/26.2.15 Chrome/134.0.6998.205 Electron/35.2.1 Safari/537.36" version="26.2.15">
  <diagram name="Page-1" id="76KwAyOWVS1hk-Mzc47O">
    <mxGraphModel dx="1028" dy="707" grid="1" gridSize="10" guides="1" tooltips="1" connect="1" arrows="1" fold="1" page="1" pageScale="1" pageWidth="850" pageHeight="1100" math="0" shadow="0">
      <root>
        <mxCell id="0" />
        <mxCell id="1" parent="0" />
        <mxCell id="-XXzYpQpPVWVxTgwjBCo-1" value="User" style="rounded=0;whiteSpace=wrap;html=1;" parent="1" vertex="1">
          <mxGeometry x="10" y="50" width="60" height="50" as="geometry" />
        </mxCell>
        <mxCell id="-XXzYpQpPVWVxTgwjBCo-2" value="App" style="rounded=0;whiteSpace=wrap;html=1;" parent="1" vertex="1">
          <mxGeometry x="180" y="50" width="60" height="50" as="geometry" />
        </mxCell>
        <mxCell id="-XXzYpQpPVWVxTgwjBCo-3" value="Game" style="rounded=0;whiteSpace=wrap;html=1;" parent="1" vertex="1">
          <mxGeometry x="360" y="50" width="60" height="50" as="geometry" />
        </mxCell>
        <mxCell id="-XXzYpQpPVWVxTgwjBCo-4" value="CreatureContainer" style="rounded=0;whiteSpace=wrap;html=1;" parent="1" vertex="1">
          <mxGeometry x="540" y="50" width="120" height="50" as="geometry" />
        </mxCell>
        <mxCell id="-XXzYpQpPVWVxTgwjBCo-5" value="GameState" style="rounded=0;whiteSpace=wrap;html=1;" parent="1" vertex="1">
          <mxGeometry x="720" y="50" width="80" height="50" as="geometry" />
        </mxCell>
        <mxCell id="-XXzYpQpPVWVxTgwjBCo-6" value="" style="rounded=0;whiteSpace=wrap;html=1;" parent="1" vertex="1">
          <mxGeometry x="35" y="130" width="10" height="330" as="geometry" />
        </mxCell>
        <mxCell id="-XXzYpQpPVWVxTgwjBCo-7" value="Drag &amp;amp; Drop" style="text;html=1;align=center;verticalAlign=middle;resizable=0;points=[];autosize=1;strokeColor=none;fillColor=none;" parent="1" vertex="1">
          <mxGeometry x="55" y="138" width="90" height="30" as="geometry" />
        </mxCell>
        <mxCell id="-XXzYpQpPVWVxTgwjBCo-8" value="/createObject?index&amp;amp;type" style="text;html=1;align=center;verticalAlign=middle;resizable=0;points=[];autosize=1;strokeColor=none;fillColor=none;" parent="1" vertex="1">
          <mxGeometry x="45" y="168" width="160" height="30" as="geometry" />
        </mxCell>
        <mxCell id="-XXzYpQpPVWVxTgwjBCo-10" value="" style="rounded=0;whiteSpace=wrap;html=1;" parent="1" vertex="1">
          <mxGeometry x="205" y="160" width="10" height="300" as="geometry" />
        </mxCell>
        <mxCell id="-XXzYpQpPVWVxTgwjBCo-11" value="" style="endArrow=classic;html=1;rounded=0;exitX=1.38;exitY=0.122;exitDx=0;exitDy=0;exitPerimeter=0;" parent="1" source="-XXzYpQpPVWVxTgwjBCo-6" edge="1">
          <mxGeometry width="50" height="50" relative="1" as="geometry">
            <mxPoint x="90" y="260" as="sourcePoint" />
            <mxPoint x="200" y="170" as="targetPoint" />
          </mxGeometry>
        </mxCell>
        <mxCell id="-XXzYpQpPVWVxTgwjBCo-13" value="" style="rounded=0;whiteSpace=wrap;html=1;" parent="1" vertex="1">
          <mxGeometry x="385" y="180" width="10" height="170" as="geometry" />
        </mxCell>
        <mxCell id="-XXzYpQpPVWVxTgwjBCo-14" value="" style="endArrow=classic;html=1;rounded=0;" parent="1" edge="1">
          <mxGeometry width="50" height="50" relative="1" as="geometry">
            <mxPoint x="210" y="190" as="sourcePoint" />
            <mxPoint x="380" y="190" as="targetPoint" />
          </mxGeometry>
        </mxCell>
        <mxCell id="-XXzYpQpPVWVxTgwjBCo-15" value="createObject()" style="text;html=1;align=center;verticalAlign=middle;resizable=0;points=[];autosize=1;strokeColor=none;fillColor=none;" parent="1" vertex="1">
          <mxGeometry x="240" y="160" width="100" height="30" as="geometry" />
        </mxCell>
        <mxCell id="-XXzYpQpPVWVxTgwjBCo-16" value="" style="endArrow=classic;html=1;rounded=0;" parent="1" edge="1">
          <mxGeometry width="50" height="50" relative="1" as="geometry">
            <mxPoint x="400" y="200" as="sourcePoint" />
            <mxPoint x="400" y="240" as="targetPoint" />
            <Array as="points">
              <mxPoint x="400" y="200" />
              <mxPoint x="440" y="200" />
              <mxPoint x="440" y="240" />
              <mxPoint x="400" y="240" />
            </Array>
          </mxGeometry>
        </mxCell>
        <mxCell id="-XXzYpQpPVWVxTgwjBCo-17" value="addCreatures()" style="text;html=1;align=center;verticalAlign=middle;resizable=0;points=[];autosize=1;strokeColor=none;fillColor=none;" parent="1" vertex="1">
          <mxGeometry x="400" y="170" width="100" height="30" as="geometry" />
        </mxCell>
        <mxCell id="-XXzYpQpPVWVxTgwjBCo-18" value="" style="rounded=0;whiteSpace=wrap;html=1;" parent="1" vertex="1">
          <mxGeometry x="595" y="250" width="10" height="70" as="geometry" />
        </mxCell>
        <mxCell id="-XXzYpQpPVWVxTgwjBCo-19" value="addMonster(new Shark)" style="text;html=1;align=center;verticalAlign=middle;resizable=0;points=[];autosize=1;strokeColor=none;fillColor=none;" parent="1" vertex="1">
          <mxGeometry x="410" y="250" width="150" height="30" as="geometry" />
        </mxCell>
        <mxCell id="-XXzYpQpPVWVxTgwjBCo-20" value="" style="endArrow=classic;html=1;rounded=0;" parent="1" edge="1">
          <mxGeometry width="50" height="50" relative="1" as="geometry">
            <mxPoint x="400" y="280" as="sourcePoint" />
            <mxPoint x="590" y="280" as="targetPoint" />
          </mxGeometry>
        </mxCell>
        <mxCell id="-XXzYpQpPVWVxTgwjBCo-21" value="" style="endArrow=classic;html=1;rounded=0;" parent="1" edge="1">
          <mxGeometry width="50" height="50" relative="1" as="geometry">
            <mxPoint x="590" y="310" as="sourcePoint" />
            <mxPoint x="400" y="310" as="targetPoint" />
          </mxGeometry>
        </mxCell>
        <mxCell id="-XXzYpQpPVWVxTgwjBCo-22" value="" style="endArrow=classic;html=1;rounded=0;" parent="1" edge="1">
          <mxGeometry width="50" height="50" relative="1" as="geometry">
            <mxPoint x="380" y="340" as="sourcePoint" />
            <mxPoint x="220" y="340" as="targetPoint" />
          </mxGeometry>
        </mxCell>
        <mxCell id="-XXzYpQpPVWVxTgwjBCo-23" value="game" style="text;html=1;align=center;verticalAlign=middle;resizable=0;points=[];autosize=1;strokeColor=none;fillColor=none;" parent="1" vertex="1">
          <mxGeometry x="265" y="318" width="50" height="30" as="geometry" />
        </mxCell>
        <mxCell id="-XXzYpQpPVWVxTgwjBCo-24" value="" style="rounded=0;whiteSpace=wrap;html=1;" parent="1" vertex="1">
          <mxGeometry x="755" y="370" width="10" height="70" as="geometry" />
        </mxCell>
        <mxCell id="-XXzYpQpPVWVxTgwjBCo-25" value="" style="endArrow=classic;html=1;rounded=0;" parent="1" edge="1">
          <mxGeometry width="50" height="50" relative="1" as="geometry">
            <mxPoint x="215" y="380" as="sourcePoint" />
            <mxPoint x="750" y="380" as="targetPoint" />
          </mxGeometry>
        </mxCell>
        <mxCell id="4VZMXS_56AmHAv07KMqj-1" value="" style="edgeStyle=orthogonalEdgeStyle;rounded=0;orthogonalLoop=1;jettySize=auto;html=1;" edge="1" parent="1" source="-XXzYpQpPVWVxTgwjBCo-26" target="-XXzYpQpPVWVxTgwjBCo-28">
          <mxGeometry relative="1" as="geometry" />
        </mxCell>
        <mxCell id="-XXzYpQpPVWVxTgwjBCo-26" value="forGame(game)" style="text;html=1;align=center;verticalAlign=middle;resizable=0;points=[];autosize=1;strokeColor=none;fillColor=none;" parent="1" vertex="1">
          <mxGeometry x="465" y="348" width="110" height="30" as="geometry" />
        </mxCell>
        <mxCell id="-XXzYpQpPVWVxTgwjBCo-27" value="" style="endArrow=classic;html=1;rounded=0;" parent="1" edge="1">
          <mxGeometry width="50" height="50" relative="1" as="geometry">
            <mxPoint x="750" y="420" as="sourcePoint" />
            <mxPoint x="220" y="420" as="targetPoint" />
          </mxGeometry>
        </mxCell>
        <mxCell id="-XXzYpQpPVWVxTgwjBCo-28" value="gameState" style="text;html=1;align=center;verticalAlign=middle;resizable=0;points=[];autosize=1;strokeColor=none;fillColor=none;" parent="1" vertex="1">
          <mxGeometry x="480" y="398" width="80" height="30" as="geometry" />
        </mxCell>
        <mxCell id="-XXzYpQpPVWVxTgwjBCo-29" value="" style="endArrow=classic;html=1;rounded=0;" parent="1" edge="1">
          <mxGeometry width="50" height="50" relative="1" as="geometry">
            <mxPoint x="205" y="450" as="sourcePoint" />
            <mxPoint x="50" y="450" as="targetPoint" />
          </mxGeometry>
        </mxCell>
        <mxCell id="-XXzYpQpPVWVxTgwjBCo-30" value="JSON" style="text;html=1;align=center;verticalAlign=middle;resizable=0;points=[];autosize=1;strokeColor=none;fillColor=none;" parent="1" vertex="1">
          <mxGeometry x="80" y="418" width="60" height="30" as="geometry" />
        </mxCell>
        <mxCell id="-XXzYpQpPVWVxTgwjBCo-31" value="" style="endArrow=none;dashed=1;html=1;dashPattern=1 3;strokeWidth=2;rounded=0;entryX=0.5;entryY=1;entryDx=0;entryDy=0;" parent="1" edge="1">
          <mxGeometry width="50" height="50" relative="1" as="geometry">
            <mxPoint x="39.5" y="530" as="sourcePoint" />
            <mxPoint x="39.5" y="110" as="targetPoint" />
          </mxGeometry>
        </mxCell>
        <mxCell id="-XXzYpQpPVWVxTgwjBCo-32" value="" style="endArrow=none;dashed=1;html=1;dashPattern=1 3;strokeWidth=2;rounded=0;entryX=0.5;entryY=1;entryDx=0;entryDy=0;" parent="1" edge="1">
          <mxGeometry width="50" height="50" relative="1" as="geometry">
            <mxPoint x="209.5" y="520" as="sourcePoint" />
            <mxPoint x="209.5" y="100" as="targetPoint" />
          </mxGeometry>
        </mxCell>
        <mxCell id="-XXzYpQpPVWVxTgwjBCo-33" value="" style="endArrow=none;dashed=1;html=1;dashPattern=1 3;strokeWidth=2;rounded=0;entryX=0.5;entryY=1;entryDx=0;entryDy=0;" parent="1" edge="1">
          <mxGeometry width="50" height="50" relative="1" as="geometry">
            <mxPoint x="389.5" y="530" as="sourcePoint" />
            <mxPoint x="389.5" y="110" as="targetPoint" />
          </mxGeometry>
        </mxCell>
        <mxCell id="-XXzYpQpPVWVxTgwjBCo-34" value="" style="endArrow=none;dashed=1;html=1;dashPattern=1 3;strokeWidth=2;rounded=0;entryX=0.5;entryY=1;entryDx=0;entryDy=0;" parent="1" edge="1">
          <mxGeometry width="50" height="50" relative="1" as="geometry">
            <mxPoint x="599.5" y="520" as="sourcePoint" />
            <mxPoint x="599.5" y="100" as="targetPoint" />
          </mxGeometry>
        </mxCell>
        <mxCell id="-XXzYpQpPVWVxTgwjBCo-35" value="" style="endArrow=none;dashed=1;html=1;dashPattern=1 3;strokeWidth=2;rounded=0;entryX=0.5;entryY=1;entryDx=0;entryDy=0;" parent="1" edge="1">
          <mxGeometry width="50" height="50" relative="1" as="geometry">
            <mxPoint x="759.5" y="520" as="sourcePoint" />
            <mxPoint x="759.5" y="100" as="targetPoint" />
          </mxGeometry>
        </mxCell>
      </root>
    </mxGraphModel>
  </diagram>
</mxfile>
